<?xml version="1.0" standalone="no"?>
<!DOCTYPE svg PUBLIC "-//W3C//DTD SVG 20010904//EN"
 "http://www.w3.org/TR/2001/REC-SVG-20010904/DTD/svg10.dtd">
<svg version="1.0" xmlns="http://www.w3.org/2000/svg"
 width="512.000000pt" height="512.000000pt" viewBox="0 0 512.000000 512.000000"
 preserveAspectRatio="xMidYMid meet">
<metadata>
Created by potrace 1.14, written by Peter Selinger 2001-2017
</metadata>
<g transform="translate(0.000000,512.000000) scale(0.100000,-0.100000)"
fill="#000000" stroke="none">
<path d="M1005 5102 c-51 -19 -378 -217 -494 -299 -127 -91 -252 -232 -339
-384 -242 -420 -225 -926 44 -1331 51 -77 115 -151 252 -290 l184 -187 -22
-93 c-47 -196 -37 -426 29 -625 40 -124 738 -1715 773 -1764 60 -83 185 -136
292 -125 163 17 296 161 296 319 0 29 -20 155 -45 281 -25 126 -44 231 -42
232 2 2 46 -35 98 -83 211 -193 323 -281 481 -379 295 -182 612 -296 973 -351
104 -15 192 -18 660 -18 l540 0 49 24 c63 31 116 84 147 147 18 39 23 65 23
124 0 86 -24 148 -81 207 l-33 36 22 16 c87 60 175 171 232 292 55 115 70 187
70 324 0 145 -23 237 -90 364 l-44 84 12 108 c15 132 1 270 -31 322 -28 45
-91 79 -148 79 -57 0 -177 -58 -276 -133 l-69 -52 -225 0 -224 1 -77 57 c-102
76 -207 127 -266 127 -128 0 -186 -93 -186 -299 l0 -73 -32 0 c-43 0 -113 35
-137 68 -10 15 -130 245 -266 512 -245 480 -330 629 -383 670 -36 29 -98 22
-129 -15 -38 -44 -31 -90 26 -171 27 -38 166 -298 309 -579 198 -389 271 -522
306 -562 57 -63 145 -110 226 -119 l58 -6 -29 -62 c-45 -97 -69 -206 -69 -318
0 -131 21 -221 82 -347 44 -91 61 -116 141 -196 103 -103 190 -158 322 -202
78 -26 87 -27 407 -32 l328 -6 27 -27 c38 -39 38 -97 0 -136 l-27 -27 -433 -3
c-458 -4 -636 5 -817 39 -364 69 -718 230 -1000 456 -63 50 -286 248 -355 315
l-20 19 20 11 c43 25 150 137 195 205 155 235 169 532 37 776 -52 96 -121 181
-166 202 -29 15 -38 15 -70 3 -44 -17 -77 -71 -68 -110 4 -14 25 -47 47 -74
96 -115 141 -235 141 -378 0 -202 -94 -372 -264 -480 -16 -10 -30 -16 -31 -14
-2 2 -9 32 -15 67 -16 83 -29 110 -62 127 -55 28 -117 7 -139 -47 -13 -29 -6
-74 78 -503 51 -259 92 -482 92 -496 -1 -58 -68 -120 -131 -120 -38 0 -85 30
-107 68 -36 66 -714 1624 -738 1697 -44 138 -55 300 -29 446 81 464 453 796
915 816 167 8 200 25 200 108 0 27 -8 44 -29 66 -29 28 -32 29 -128 29 -253 0
-506 -85 -704 -236 l-84 -63 -135 137 c-118 120 -141 148 -178 223 -55 112
-75 206 -69 329 8 171 88 345 211 458 30 27 146 105 258 173 111 68 220 141
241 163 106 105 113 273 18 394 -75 94 -215 135 -326 94z m165 -217 c18 -19
25 -36 25 -66 0 -54 -14 -66 -254 -213 -269 -165 -368 -263 -456 -447 -52
-110 -75 -200 -82 -319 -6 -121 6 -219 43 -329 46 -139 96 -213 252 -372 78
-80 142 -150 142 -154 0 -5 -23 -44 -52 -88 l-51 -78 -149 148 c-195 194 -273
309 -331 488 -43 135 -52 192 -51 345 1 121 6 161 27 242 54 206 135 348 286
499 84 84 123 112 310 228 118 73 224 137 235 142 32 13 78 2 106 -26z m2585
-2994 c28 -16 81 -56 118 -90 37 -33 77 -63 90 -66 12 -4 52 -1 87 4 84 14
306 14 390 0 35 -5 74 -8 87 -4 12 3 49 30 81 60 64 59 169 128 183 119 12 -7
10 -125 -1 -189 -27 -145 -27 -146 27 -227 129 -193 134 -440 12 -628 -73
-113 -172 -192 -300 -237 -67 -24 -91 -27 -249 -31 -133 -3 -193 0 -250 12
-253 53 -439 265 -457 521 -9 134 23 250 102 371 50 75 52 88 30 189 -15 73
-20 225 -7 225 4 0 30 -13 57 -29z"/>
<path d="M3909 1367 c-45 -30 -58 -76 -35 -123 31 -66 114 -78 161 -22 47 55
26 133 -42 159 -35 13 -46 12 -84 -14z"/>
<path d="M4483 1375 c-71 -31 -75 -139 -7 -175 58 -31 126 -4 145 58 15 51 -8
97 -56 118 -41 17 -42 17 -82 -1z"/>
<path d="M4153 1065 c-37 -16 -63 -60 -63 -108 0 -24 11 -48 37 -81 88 -114
178 -100 260 39 30 49 3 123 -53 150 -40 19 -138 19 -181 0z"/>
<path d="M2199 3281 c-79 -79 9 -203 109 -154 49 24 69 77 48 128 -27 63 -106
76 -157 26z"/>
</g>
</svg>
